<svg width="33" height="30" viewBox="0 0 33 30" fill="none" xmlns="http://www.w3.org/2000/svg">
<path d="M9 28C9.55228 28 10 27.5523 10 27C10 26.4477 9.55228 26 9 26C8.44772 26 8 26.4477 8 27C8 27.5523 8.44772 28 9 28Z" stroke="white" stroke-width="2" stroke-linecap="round" stroke-linejoin="round"/>
<path d="M20 28C20.5523 28 21 27.5523 21 27C21 26.4477 20.5523 26 20 26C19.4477 26 19 26.4477 19 27C19 27.5523 19.4477 28 20 28Z" stroke="white" stroke-width="2" stroke-linecap="round" stroke-linejoin="round"/>
<path d="M1 7H5L7.68 20.39C7.77144 20.8504 8.02191 21.264 8.38755 21.5583C8.75318 21.8526 9.2107 22.009 9.68 22H19.4C19.8693 22.009 20.3268 21.8526 20.6925 21.5583C21.0581 21.264 21.3086 20.8504 21.4 20.39L23 12H6" stroke="white" stroke-width="2" stroke-linecap="round" stroke-linejoin="round"/>
<ellipse cx="25" cy="8.89746" rx="8" ry="7.97656" fill="#EBD7CE"/>
<path d="M26.09 4.91797V11.918H24.47V6.21797H23.07V4.91797H26.09Z" fill="black"/>
</svg>
